<?xml version="1.0" encoding="utf-8"?>
<!-- Generator: Adobe Illustrator 28.0.0, SVG Export Plug-In . SVG Version: 6.00 Build 0)  -->
<svg version="1.1" id="Layer_1" xmlns="http://www.w3.org/2000/svg" xmlns:xlink="http://www.w3.org/1999/xlink" x="0px" y="0px"
	 viewBox="0 0 72 72" style="enable-background:new 0 0 72 72;" xml:space="preserve">
<path d="M58.7,40.3L72,36l-13.3-4.3C57,22.4,49.6,15,40.3,13.3L36,0l-4.3,13.3c-3.3,0.6-6.3,2-9,3.8L0,0l17.1,22.8
	c-1.8,2.6-3.2,5.7-3.8,9L0,36l13.3,4.3C15,49.6,22.4,57,31.7,58.7L36,72l4.3-13.3c3.3-0.6,6.3-2,9-3.8L72,72L54.9,49.2
	C56.8,46.6,58.1,43.6,58.7,40.3z M36,54c-9.9,0-18-8.1-18-18c0-3.2,0.9-6.2,2.4-8.8l10.5,14l14,10.5C42.2,53.1,39.2,54,36,54z
	 M33.4,36c0-1.4,1.2-2.6,2.6-2.6s2.6,1.2,2.6,2.6s-1.2,2.6-2.6,2.6S33.4,37.4,33.4,36z M51.6,44.8l-10.5-14l-14-10.5
	c2.6-1.5,5.6-2.4,8.8-2.4c9.9,0,18,8.1,18,18C54,39.2,53.1,42.2,51.6,44.8z"/>
</svg>
