<?xml version="1.0" encoding="utf-8"?>
<!-- Generator: Adobe Illustrator 28.0.0, SVG Export Plug-In . SVG Version: 6.00 Build 0)  -->
<svg version="1.1" id="Layer_1" xmlns="http://www.w3.org/2000/svg" xmlns:xlink="http://www.w3.org/1999/xlink" x="0px" y="0px"
	 viewBox="0 0 500 500" style="enable-background:new 0 0 500 500;" xml:space="preserve">
<path d="M407.9,279.7L500,250l-92.1-29.7c-12.1-64.9-63.2-116-128.1-128.1L250,0l-29.7,92.1c-22.9,4.3-43.8,13.6-62.2,26.4L0,0
	l118.6,158.1c-12.8,18.3-22.2,39.3-26.4,62.2L0,250l92.1,29.7c12.1,64.9,63.2,116,128.1,128.1L250,500l29.7-92.1
	c22.9-4.3,43.8-13.6,62.2-26.4L500,500L381.4,341.9C394.3,323.6,403.6,302.6,407.9,279.7z M250,375c-69,0-125-56-125-125
	c0-22.3,6.3-43,16.6-61.2l72.7,96.9l96.9,72.7C293,368.7,272.3,375,250,375z M232.1,250c0-9.9,8-17.9,17.9-17.9s17.9,8,17.9,17.9
	s-8,17.9-17.9,17.9S232.1,259.9,232.1,250z M358.4,311.2l-72.7-96.9l-96.9-72.7C207,131.3,227.7,125,250,125c69,0,125,56,125,125
	C375,272.3,368.7,293,358.4,311.2z"/>
</svg>
